<svg width="640" height="480" xmlns="http://www.w3.org/2000/svg">
 <!-- Created with Method Draw - http://github.com/duopixel/Method-Draw/ -->

 <g stroke="null">
  <title>background</title>
  <rect x="-1" y="-1" width="642" height="482" id="canvas_background" fill="#ffffff" stroke="null"/>
  <g id="canvasGrid" display="none" stroke="null">
   <rect id="svg_4" width="640" height="480" x="1" y="1" stroke-width="0" fill="url(#gridpattern)" stroke="null"/>
  </g>
 </g>
 <g stroke="null">
  <title>Layer 1</title>
  <rect rx="43" fill="#000000" stroke-width="0" stroke-opacity="null" fill-opacity="null" x="156.616468" y="121.19522" width="99.775064" height="200.408316" id="svg_3" stroke="#000"/>
  <rect rx="20" fill="#000000" stroke-width="0" stroke-opacity="null" fill-opacity="null" x="274.95416" y="121.19522" width="99.775064" height="200.408316" id="svg_6" stroke="#000"/>
  <ellipse stroke="#000" ry="36.499996" rx="30.500001" id="svg_19" cy="216.499999" cx="209" stroke-opacity="null" stroke-width="0" fill="#ffffff"/>
  <ellipse transform="rotate(90.17257690429688 325,210.00000000000003) " ry="18.000001" rx="13.500002" id="svg_22" cy="210.000001" cx="325" fill-opacity="null" stroke-opacity="null" stroke-width="0" fill="#000000" stroke="#ffffff"/>
  <ellipse transform="rotate(35.5355224609375 336.5746765136718,260.1962280273438) " ry="41.415398" rx="25.999999" id="svg_23" cy="260.196224" cx="336.574674" stroke-opacity="null" stroke-width="0" fill="#ffffff" stroke="#000"/>
  <ellipse ry="34.499997" rx="44" id="svg_24" cy="175.499998" cx="335.499998" stroke-opacity="null" stroke-width="0" fill="#ffffff" stroke="#000"/>
  <ellipse transform="rotate(22.402982711791992 312.49999999999994,225.0000000000001) " ry="34.999997" rx="16.999999" id="svg_25" cy="224.999998" cx="312.499999" stroke-opacity="null" stroke-width="0" fill="#ffffff" stroke="#000"/>
  <rect rx="20" fill="#000000" stroke-width="0" stroke-opacity="null" fill-opacity="null" x="40.616468" y="121.19522" width="99.775064" height="200.408316" id="svg_30" stroke="#000"/>
  <ellipse ry="15" rx="15" id="svg_32" cy="154.000001" cx="74" stroke-opacity="null" stroke-width="0" fill="#ffffff" stroke="#000"/>
  <ellipse ry="15" rx="15" id="svg_1" cy="186.000001" cx="111" stroke-opacity="null" stroke-width="0" fill="#ffffff" stroke="#000"/>
  <ellipse ry="15" rx="15" id="svg_2" cy="216.000001" cx="75" stroke-opacity="null" stroke-width="0" fill="#ffffff" stroke="#000"/>
  <ellipse ry="15" rx="15" id="svg_5" cy="247.000001" cx="111" stroke-opacity="null" stroke-width="0" fill="#ffffff" stroke="#000"/>
  <ellipse ry="15" rx="15" id="svg_7" cy="281.000001" cx="74" stroke-opacity="null" stroke-width="0" fill="#ffffff" stroke="#000"/>
  <rect rx="20" fill="#000000" stroke-width="0" stroke-opacity="null" fill-opacity="null" x="40.616468" y="121.19522" width="99.775064" height="200.408316" id="svg_8" stroke="#000"/>
  <rect rx="20" fill="#000000" stroke-width="0" stroke-opacity="null" fill-opacity="null" x="389.616468" y="122.19522" width="99.775064" height="200.408316" id="svg_14" stroke="#000"/>
  <rect rx="17" fill="#000000" stroke-width="0" stroke-opacity="null" fill-opacity="null" x="503.616468" y="123.19522" width="99.775064" height="200.408316" id="svg_21" stroke="#000"/>
  <rect fill="#ffffff" stroke-width="0" stroke-opacity="null" fill-opacity="null" x="408.5" y="155" width="62" height="21" id="svg_33" rx="10" stroke="#000"/>
  <rect fill="#ffffff" stroke-width="0" stroke-opacity="null" fill-opacity="null" x="410.5" y="267" width="62" height="21" id="svg_34" rx="10" stroke="#000"/>
  <rect fill="#ffffff" stroke-width="0" stroke-opacity="null" fill-opacity="null" x="412.499999" y="209" width="55.999998" height="21" id="svg_50" rx="10" transform="rotate(90 440.50000000000006,219.50000000000003) " stroke="#000"/>
  <rect stroke="#000" fill="#ffffff" stroke-width="0" stroke-opacity="null" fill-opacity="null" x="455.499989" y="263" width="156.00001" height="21" id="svg_51" rx="10" transform="rotate(90 533.5000000000001,273.50000000000006) "/>
  <rect stroke="#000" fill="#ffffff" stroke-width="0" stroke-opacity="null" fill-opacity="null" x="504.999989" y="155.5" width="137.000008" height="21" id="svg_55" rx="10" transform="rotate(90 573.5000000000001,166.00000000000006) "/>
  <rect stroke="#000" rx="17" fill="#ffffff" stroke-width="0" stroke-opacity="null" x="77.616471" y="106.195225" width="74.775058" height="174.408294" id="svg_10"/>
 </g>
</svg>