<svg width="529" height="272" xmlns="http://www.w3.org/2000/svg">
 <!-- Created with Method Draw - http://github.com/duopixel/Method-Draw/ -->

 <g>
  <title>background</title>
  <rect x="-1" y="-1" width="531" height="274" id="canvas_background" fill="#ffffff"/>
  <g id="canvasGrid" display="none">
   <rect id="svg_4" width="640" height="480" x="1" y="1" stroke-width="0" fill="url(#gridpattern)"/>
  </g>
 </g>
 <g>
  <title>Layer 1</title>
  <rect rx="20" fill="#000000" stroke-width="0" stroke-opacity="null" fill-opacity="null" x="153.616468" y="36.19522" width="99.775064" height="200.408316" id="svg_3" stroke="#000"/>
  <rect rx="20" fill="#000000" stroke-width="0" stroke-opacity="null" fill-opacity="null" x="271.95416" y="36.19522" width="99.775064" height="200.408316" id="svg_6" stroke="#000"/>
  <rect rx="20" fill="#000000" stroke-width="0" stroke-opacity="null" fill-opacity="null" x="386.150037" y="36.19522" width="99.775064" height="200.408316" id="svg_10" stroke="#000"/>
  <ellipse stroke="#000" ry="32.499997" rx="31.5" id="svg_19" cy="91.499999" cx="199.999999" stroke-opacity="null" stroke-width="0" fill="#ffffff"/>
  <ellipse transform="rotate(90.17257690429688 322,125.00000000000003) " stroke="#ffffff" ry="18.000001" rx="13.500002" id="svg_22" cy="125.000001" cx="322" fill-opacity="null" stroke-opacity="null" stroke-width="0" fill="#000000"/>
  <ellipse stroke="#000" transform="rotate(35.5355224609375 333.5746765136721,175.19622802734372) " ry="41.415398" rx="25.999999" id="svg_23" cy="175.196224" cx="333.574674" stroke-opacity="null" stroke-width="0" fill="#ffffff"/>
  <ellipse stroke="#000" ry="34.499997" rx="44" id="svg_24" cy="90.499998" cx="332.499998" stroke-opacity="null" stroke-width="0" fill="#ffffff"/>
  <ellipse transform="rotate(22.402982711791992 309.5000000000001,140.00000000000006) " stroke="#000" ry="34.999997" rx="16.999999" id="svg_25" cy="139.999998" cx="309.499999" stroke-opacity="null" stroke-width="0" fill="#ffffff"/>
  <ellipse stroke="#000" ry="50.999997" rx="31.5" id="svg_26" cy="195.999997" cx="203.999999" stroke-opacity="null" stroke-width="0" fill="#ffffff"/>
  <ellipse stroke="#000" ry="28.999998" rx="45.499999" id="svg_27" cy="87.999999" cx="457" stroke-opacity="null" stroke-width="0" fill="#ffffff"/>
  <ellipse stroke="#000" ry="28.999998" rx="45.499999" id="svg_29" cy="175.999999" cx="455" stroke-opacity="null" stroke-width="0" fill="#ffffff"/>
  <rect rx="20" fill="#000000" stroke-width="0" stroke-opacity="null" fill-opacity="null" x="37.616468" y="36.19522" width="99.775064" height="200.408316" id="svg_30" stroke="#000"/>
  <ellipse stroke="#000" ry="32.499997" rx="31.5" id="svg_32" cy="86.499999" cx="87.999999" stroke-opacity="null" stroke-width="0" fill="#ffffff"/>
  <ellipse stroke="#000" transform="rotate(9.28617000579834 109.6328430175781,200.1551513671875) " ry="65.499996" rx="40.352259" id="svg_33" cy="200.15515" cx="109.632835" stroke-opacity="null" stroke-width="0" fill="#ffffff"/>
 </g>
</svg>